<svg width="75" height="75" viewBox="0 0 75 75" fill="none" xmlns="http://www.w3.org/2000/svg">
    <g id="ts">
        <title>file_type_typescript_official</title>
        <rect x="0" y="0" width="50" height="50" rx="1.312" style="fill:#3178c6"/>
        <path d="M18.245,23.759v3.068a6.492,6.492,0,0,0,1.764.575,11.56,11.56,0,0,0,2.146.192,9.968,9.968,0,0,0,2.088-.211,5.11,5.11,0,0,0,1.735-.7,3.542,3.542,0,0,0,1.181-1.266,4.469,4.469,0,0,0,.186-3.394,3.409,3.409,0,0,0-.717-1.117,5.236,5.236,0,0,0-1.123-.877,12.027,12.027,0,0,0-1.477-.734q-.6-.249-1.08-.484a5.5,5.5,0,0,1-.813-.479,2.089,2.089,0,0,1-.516-.518,1.091,1.091,0,0,1-.181-.618,1.039,1.039,0,0,1,.162-.571,1.4,1.4,0,0,1,.459-.436,2.439,2.439,0,0,1,.726-.283,4.211,4.211,0,0,1,.956-.1,5.942,5.942,0,0,1,.808.058,6.292,6.292,0,0,1,.856.177,5.994,5.994,0,0,1,.836.3,4.657,4.657,0,0,1,.751.422V13.9a7.509,7.509,0,0,0-1.525-.4,12.426,12.426,0,0,0-1.9-.129,8.767,8.767,0,0,0-2.064.235,5.239,5.239,0,0,0-1.716.733,3.655,3.655,0,0,0-1.171,1.271,3.731,3.731,0,0,0-.431,1.845,3.588,3.588,0,0,0,.789,2.34,6,6,0,0,0,2.395,1.639q.63.26,1.175.509a6.458,6.458,0,0,1,.942.517,2.463,2.463,0,0,1,.626.585,1.2,1.2,0,0,1,.23.719,1.1,1.1,0,0,1-.144.552,1.269,1.269,0,0,1-.435.441,2.381,2.381,0,0,1-.726.292,4.377,4.377,0,0,1-1.018.105,5.773,5.773,0,0,1-1.969-.35A5.874,5.874,0,0,1,18.245,23.759Zm-5.154-7.638h4V13.594H5.938v2.527H9.92V27.375h3.171Z" style="fill:#ffffff;fill-rule:evenodd"/>
    </g>
    <g id="react">
        <path d="M92.9 32.7C91.7 32.28 90.49 31.9 89.26 31.55C89.47 30.71 89.66 29.87 89.83 29.06C92.58 15.64 90.78 4.84 84.63 1.28C78.74 -2.13 69.1 1.42 59.36 9.93C58.4 10.77 57.46 11.63 56.55 12.52C55.93 11.93 55.31 11.35 54.68 10.78C44.47 1.69 34.24 -2.14 28.1 1.43C22.21 4.85 20.47 15.01 22.95 27.72C23.2 28.98 23.47 30.23 23.78 31.48C22.34 31.89 20.94 32.33 19.6 32.8C7.64 36.98 0 43.54 0 50.35C0 57.38 8.2 64.43 20.66 68.7C21.67 69.04 22.69 69.36 23.72 69.66C23.38 71 23.09 72.35 22.83 73.71C20.47 86.2 22.31 96.12 28.18 99.52C34.25 103.03 44.43 99.42 54.35 90.72C55.15 90.01 55.94 89.29 56.7 88.54C57.7 89.5 58.71 90.43 59.76 91.34C69.36 99.63 78.85 102.98 84.71 99.57C90.77 96.05 92.74 85.39 90.19 72.43C89.98 71.42 89.76 70.4 89.51 69.4C90.22 69.19 90.92 68.97 91.61 68.74C104.56 64.43 112.99 57.47 112.99 50.35C112.99 43.52 105.1 36.91 92.9 32.7ZM90.09 64.14C89.47 64.35 88.84 64.55 88.19 64.74C86.76 60.19 84.83 55.36 82.47 50.37C84.73 45.5 86.58 40.73 87.97 36.22C89.13 36.55 90.25 36.9 91.33 37.28C101.79 40.89 108.16 46.23 108.16 50.35C108.16 54.73 101.28 60.42 90.09 64.14ZM85.45 73.37C86.58 79.1 86.74 84.29 85.99 88.34C85.32 91.98 83.97 94.41 82.29 95.38C78.73 97.45 71.12 94.76 62.91 87.67C61.94 86.83 60.99 85.96 60.06 85.07C63.25 81.57 66.43 77.51 69.54 73C75 72.51 80.16 71.71 84.84 70.63C85.06 71.54 85.27 72.45 85.45 73.37ZM38.52 95.02C35.04 96.25 32.27 96.29 30.6 95.32C27.03 93.26 25.55 85.29 27.57 74.61C27.81 73.35 28.09 72.09 28.4 70.85C33.02 71.87 38.15 72.61 43.62 73.06C46.75 77.47 50.02 81.53 53.32 85.08C52.62 85.77 51.9 86.43 51.17 87.07C46.79 90.92 42.39 93.65 38.52 95.02ZM22.22 64.12C16.71 62.23 12.16 59.77 9.04 57.09C6.24 54.68 4.83 52.29 4.83 50.35C4.83 46.22 10.96 40.95 21.19 37.37C22.43 36.94 23.73 36.53 25.08 36.14C26.49 40.76 28.35 45.59 30.59 50.47C28.32 55.42 26.44 60.32 25.01 64.99C24.07 64.72 23.14 64.43 22.22 64.12ZM27.69 26.79C25.56 15.9 26.97 7.68 30.52 5.62C34.3 3.42 42.66 6.56 51.47 14.41C52.05 14.92 52.61 15.44 53.17 15.98C49.88 19.52 46.64 23.54 43.54 27.93C38.23 28.43 33.14 29.22 28.46 30.28C28.17 29.13 27.92 27.96 27.69 26.79L27.69 26.79ZM76.43 38.87C75.32 36.95 74.17 35.06 72.99 33.2C76.59 33.66 80.05 34.26 83.29 35C82.32 38.14 81.1 41.41 79.68 44.77C78.63 42.78 77.55 40.81 76.43 38.87ZM56.55 19.44C58.78 21.86 61.01 24.56 63.2 27.5C58.75 27.28 54.29 27.28 49.84 27.49C52.04 24.59 54.29 21.89 56.55 19.44ZM36.55 38.9C35.44 40.83 34.37 42.79 33.36 44.77C31.95 41.42 30.75 38.13 29.77 34.95C32.99 34.23 36.43 33.64 40.01 33.19C38.81 35.07 37.66 36.97 36.55 38.9L36.55 38.9ZM40.11 67.85C36.41 67.44 32.92 66.88 29.7 66.17C30.7 62.94 31.93 59.58 33.36 56.16C34.38 58.14 35.45 60.1 36.57 62.03C37.71 64.01 38.9 65.96 40.11 67.85ZM56.68 81.6C54.39 79.12 52.11 76.38 49.88 73.43C52.05 73.52 54.25 73.56 56.5 73.56C58.8 73.56 61.07 73.51 63.32 73.41C61.12 76.41 58.89 79.15 56.68 81.6ZM79.72 55.99C81.23 59.44 82.5 62.78 83.52 65.96C80.24 66.71 76.7 67.32 72.98 67.77C74.17 65.87 75.33 63.94 76.44 61.99C77.58 60.02 78.67 58.01 79.72 55.99ZM72.26 59.57C70.55 62.56 68.74 65.49 66.84 68.35C63.4 68.6 59.95 68.72 56.5 68.72C52.98 68.72 49.56 68.61 46.27 68.39C44.31 65.53 42.47 62.6 40.74 59.6L40.74 59.6C39.02 56.62 37.41 53.57 35.92 50.46C37.41 47.36 39.01 44.31 40.73 41.32L40.73 41.32C42.44 38.34 44.27 35.42 46.21 32.57C49.57 32.31 53.01 32.18 56.49 32.18L56.5 32.18C59.99 32.18 63.44 32.31 66.8 32.57C68.72 35.41 70.54 38.32 72.25 41.3C73.97 44.28 75.59 47.31 77.12 50.39C75.61 53.51 73.99 56.57 72.26 59.57ZM82.22 5.48C86 7.67 87.48 16.5 85.1 28.08C84.95 28.82 84.78 29.57 84.59 30.33C79.9 29.25 74.81 28.44 69.48 27.94C66.38 23.5 63.16 19.47 59.93 15.97C60.78 15.16 61.64 14.36 62.53 13.58C70.87 6.3 78.67 3.42 82.22 5.48ZM56.5 40.22C62.07 40.22 66.58 44.76 66.58 50.35C66.58 55.94 62.07 60.47 56.5 60.47C50.92 60.47 46.41 55.94 46.41 50.35C46.41 44.76 50.92 40.22 56.5 40.22Z" fill="#00D8FF" fill-opacity="1.000000" fill-rule="nonzero"/>
    </g>
    <g id="js">
        <path d="M7.5 7.5L112.5 7.5L112.5 112.5L7.5 112.5L7.5 7.5Z" fill="#F5DE19" fill-opacity="1.000000" fill-rule="nonzero"/>
        <path d="M78.03 89.53C78.92 91.34 80.31 92.87 82.04 93.93C83.76 94.99 85.75 95.55 87.78 95.53C91.87 95.53 94.48 93.48 94.48 90.65C94.48 87.28 91.8 86.07 87.3 84.1L84.83 83.04C77.7 80.01 72.98 76.21 72.98 68.18C72.98 60.78 78.6 55.14 87.43 55.14C90.28 54.94 93.14 55.58 95.63 56.98C98.13 58.39 100.15 60.49 101.46 63.04L93.75 67.98C93.24 66.71 92.37 65.63 91.24 64.87C90.11 64.12 88.77 63.72 87.41 63.75C86.82 63.69 86.22 63.75 85.65 63.94C85.08 64.12 84.56 64.42 84.12 64.82C83.67 65.22 83.32 65.7 83.07 66.25C82.83 66.79 82.7 67.38 82.69 67.98C82.69 70.93 84.52 72.13 88.76 73.98L91.23 75.03C99.61 78.63 104.35 82.29 104.35 90.53C104.35 99.42 97.37 104.28 88 104.28C84.35 104.52 80.71 103.69 77.52 101.9C74.33 100.11 71.72 97.43 70.02 94.19L78.03 89.53ZM43.17 90.38C44.72 93.13 46.13 95.46 49.52 95.46C52.76 95.46 54.81 94.19 54.81 89.26L54.81 55.71L64.68 55.71L64.68 89.39C64.68 99.6 58.68 104.25 49.94 104.25C46.85 104.42 43.79 103.65 41.15 102.05C38.5 100.44 36.41 98.07 35.14 95.25L43.17 90.38Z" fill="#000000" fill-opacity="1.000000" fill-rule="nonzero"/>
    </g>
    <g id="html5">
        <path d="M22.13 102L13.7 7.5L106.29 7.5L97.85 101.98L59.94 112.5L22.13 102Z" fill="#E44F26" fill-opacity="1.000000" fill-rule="nonzero"/>
        <path d="M60 104.46L90.63 95.97L97.84 15.22L60 15.22L60 104.46Z" fill="#F1662A" fill-opacity="1.000000" fill-rule="nonzero"/>
        <path d="M60 50.27L44.66 50.27L43.6 38.4L60 38.4L60 26.81L30.93 26.81L31.21 29.92L34.06 61.86L60 61.86L60 50.27ZM60 80.37L59.94 80.39L47.04 76.9L46.21 67.66L34.57 67.66L36.2 85.86L59.94 92.45L60 92.43L60 80.37Z" fill="#EBEBEB" fill-opacity="1.000000" fill-rule="nonzero"/>
        <path d="M59.95 50.27L59.95 61.86L74.23 61.86L72.88 76.9L59.95 80.38L59.95 92.44L83.72 85.86L83.89 83.9L86.61 53.38L86.9 50.27L59.95 50.27ZM59.95 26.81L59.95 38.4L87.95 38.4L88.18 35.8L88.71 29.92L88.99 26.81L59.95 26.81Z" fill="#FFFFFF" fill-opacity="1.000000" fill-rule="nonzero"/>
    </g>
    <g id="gitHub">
        <path d="M44 0C19.69 0 0 19.69 0 44C0 63.47 12.59 79.91 30.08 85.74C32.28 86.13 33.11 84.81 33.11 83.65C33.11 82.61 33.05 79.14 33.05 75.46C22 77.49 19.14 72.76 18.26 70.29C17.76 69.02 15.62 65.12 13.75 64.07C12.21 63.25 10.01 61.21 13.69 61.16C17.16 61.1 19.63 64.35 20.45 65.67C24.42 72.32 30.74 70.45 33.27 69.3C33.66 66.44 34.81 64.51 36.08 63.41C26.29 62.31 16.06 58.52 16.06 41.69C16.06 36.9 17.76 32.94 20.57 29.86C20.12 28.76 18.59 24.25 21.01 18.2C21.01 18.2 24.69 17.04 33.11 22.71C36.63 21.72 40.37 21.23 44.11 21.23C47.85 21.23 51.59 21.72 55.11 22.71C63.52 16.99 67.21 18.2 67.21 18.2C69.62 24.25 68.08 28.76 67.65 29.86C70.45 32.94 72.16 36.84 72.16 41.69C72.16 58.57 61.87 62.31 52.08 63.41C53.68 64.79 55.05 67.43 55.05 71.55C55.05 77.44 55 82.17 55 83.65C55 84.81 55.82 86.18 58.02 85.74C66.75 82.79 74.34 77.18 79.72 69.69C85.1 62.2 87.99 53.21 88 44C88 19.69 68.31 0 44 0Z" fill="#000000" fill-opacity="1.000000" fill-rule="evenodd"/>
    </g>
    <g id="git">
        <path d="M103.02 47.82L57.17 1.98C54.53 -0.66 50.25 -0.66 47.61 1.98L38.09 11.5L50.16 23.57C52.97 22.62 56.19 23.26 58.43 25.5C60.67 27.75 61.31 30.99 60.33 33.81L71.97 45.45C74.79 44.48 78.04 45.1 80.29 47.36C83.43 50.5 83.43 55.59 80.29 58.73C77.14 61.88 72.05 61.88 68.9 58.73C66.54 56.37 65.96 52.9 67.15 49.98L56.3 39.13L56.3 67.69C57.09 68.08 57.8 68.6 58.43 69.21C61.57 72.36 61.57 77.45 58.43 80.59C55.28 83.74 50.19 83.74 47.05 80.59C43.91 77.45 43.91 72.36 47.05 69.21C47.8 68.46 48.7 67.86 49.68 67.46L49.68 38.63C48.7 38.23 47.8 37.63 47.05 36.87C44.67 34.5 44.09 31 45.31 28.08L33.41 16.17L1.98 47.6C-0.67 50.25 -0.67 54.53 1.98 57.17L47.82 103.01C50.46 105.65 54.74 105.65 57.38 103.01L103.01 57.38C105.66 54.74 105.66 50.46 103.01 47.82L103.02 47.82Z" fill="#DE4C36" fill-opacity="1.000000" fill-rule="nonzero"/>
    </g>
    <g id="css">
        <path d="M22.13 101.15L13.71 7.43L106.29 7.43L97.85 101.13L59.94 111.56L22.13 101.15Z" fill="#1572B6" fill-opacity="1.000000" fill-rule="nonzero"/>
        <path d="M60 103.59L90.63 95.17L97.84 15.1L60 15.1L60 103.59Z" fill="#33A9DC" fill-opacity="1.000000" fill-rule="nonzero"/>
        <path d="M60 49.05L75.33 49.05L76.39 37.28L60 37.28L60 25.78L89.06 25.78L88.78 28.87L85.93 60.54L60 60.54L60 49.05Z" fill="#FFFFFF" fill-opacity="1.000000" fill-rule="nonzero"/>
        <path d="M60.07 78.9L60.01 78.91L47.11 75.46L46.28 66.29L34.65 66.29L36.27 84.34L60.01 90.87L60.07 90.86L60.07 78.9Z" fill="#EBEBEB" fill-opacity="1.000000" fill-rule="nonzero"/>
        <path d="M74.35 60.06L72.95 75.45L60.03 78.91L60.03 90.87L83.79 84.34L83.96 82.4L85.98 60.06L74.35 60.06Z" fill="#FFFFFF" fill-opacity="1.000000" fill-rule="nonzero"/>
        <path d="M60.04 25.78L60.04 37.28L32.04 37.28L31.81 34.69L31.28 28.87L31 25.78L60.04 25.78ZM60 49.05L60 60.54L47.25 60.54L47.02 57.96L46.49 52.13L46.21 49.05L60 49.05Z" fill="#EBEBEB" fill-opacity="1.000000" fill-rule="nonzero"/>
    </g>
    <g id="styledComponents">
        <!-- <path d="M16.214 6.762l-.075.391c-.116.741-.074.953.244 1.228l.307.254-.318 1.418c-.19.846-.423 1.555-.571 1.788-.127.201-.275.497-.307.656-.053.19-.233.381-.508.55-.243.138-.72.508-1.058.805-.27.243-.456.392-.557.456l-.33.261c-.106.17-.166.307-.189.411-.023.107-.01.178.024.23.033.05.09.085.168.107a.954.954 0 00.282.023 3 3 0 00.632-.112c.07-.019.125-.037.173-.053.074-.091.245-.263.548-.562.804-.793 1.111-1.227.794-1.11-.117.042-.064-.064.137-.276.424-.413.667-1.037 1.175-2.994.402-1.545.402-1.567.698-1.567.139 0 .532.024.532.024V6.762h-.902zm3.839 3.165c-.064 0-.17.096-.233.202-.116.19.021.306 1.767 1.396 1.037.657 1.873 1.217 1.852 1.26-.021.031-.868.582-1.883 1.217-1.842 1.142-1.852 1.153-1.683 1.386.212.275 0 .37 2.391-1.122L24 13.155v-.836l-1.937-1.196c-1.047-.656-1.957-1.185-2.01-1.196zm-16.085.117c-.053 0-.963.54-2.01 1.185L0 12.425v.836l1.947 1.217c1.08.666 1.99 1.217 2.032 1.217.042 0 .127-.096.212-.212.127-.201.02-.286-1.768-1.418C.72 12.996.54 12.848.71 12.732c.106-.074.91-.572 1.778-1.111 1.979-1.217 1.873-1.133 1.714-1.387-.063-.105-.17-.2-.233-.19zm8.684.023c-.292-.002-.92.443-2.8 1.978-.081.193-.088.326-.051.412.024.059.068.1.129.13.06.03.138.048.224.055.171.015.373-.012.536-.044l.11-.025a.386.386 0 01.144-.118c.116-.064.603-.508 1.09-.984.857-.868 1.058-1.26.709-1.387a.24.24 0 00-.09-.017zm2.196.603c-.257.007-.72.305-1.513.938-.398.323-.65.497-.785.533l-.524.414c-.197.36-.226.583-.174.706a.25.25 0 00.138.134.644.644 0 00.24.045 2.18 2.18 0 00.58-.085 3.466 3.466 0 00.291-.092l.029-.012.053-.028c.1-.129.33-.372.618-.652.91-.878 1.375-1.502 1.28-1.735-.043-.113-.117-.17-.233-.166zm-2.424 1.08c-.074.008-.24.136-.539.398-.432.382-.903.602-1.066.504a3.97 3.97 0 01-.114.024c-.166.033-.373.06-.558.045a.708.708 0 01-.252-.063.337.337 0 01-.168-.17c-.037-.09-.037-.202.005-.345l-.65.534-1.471 1.217V15.867l4.82-3.797a.41.41 0 01.016-.123c.037-.134.035-.202-.023-.196zm2.074.639c-.073 0-.195.103-.39.31-.265.283-.682.557-.903.613l-.034.018a2.191 2.191 0 01-.11.042c-.06.02-.138.044-.228.068-.18.049-.404.094-.604.089a.732.732 0 01-.275-.054.344.344 0 01-.184-.18c-.058-.139-.035-.334.092-.611L7.61 16.033v1.205h1.868l3.962-3.112c.103-.114.258-.27.467-.465.56-.519.687-.698.687-.963 0-.206-.023-.31-.096-.31zm.943 1.95l-.339.338c-.19.18-.529.402-.761.497l-.046.02-.003.005-.01.01c-.009.007-.013.008-.02.011a3.432 3.432 0 01-.282.093 3.058 3.058 0 01-.65.115 1.035 1.035 0 01-.31-.027.364.364 0 01-.218-.144c-.048-.074-.062-.173-.035-.295a1.11 1.11 0 01.095-.25l-3.197 2.526h4.252l.508-.582c.698-.814 1.016-1.396 1.016-1.894z" fill="#000000"/> -->
        <svg xmlns="http://www.w3.org/2000/svg" width="1em" height="1em" viewBox="0 0 512 512"><path fill="currentColor" d="M128.392 245.844c-2 25.182 20.123 43.73 35.221 43.73c15.119-.705 74.002-50.326 74.002-50.326c27.694-35.025 27.814-50.599 27.814-62.84c-2.31-54.043-100.77 28.27-137.037 69.436m243.565-20.918c13.365-28.286-4.616-59.703-43.728-32.108c-31.08 19.754-71.317 60.392-90.574 76.3c-8.932 18.041 13.71 67.551 49.59 41.41c42.41-30.812 73.38-59.785 84.712-85.602m36.4-171.112L416.97 0H512v98.234l-34.827.416l-41.935 142.034c2.61 50.128-22.81 50.944-26.057 73.945c-8.161 57.81-72.81 105.112-97.527 105.112c-16.485-.478-28.536-19.372-32.584-35.836c46.48-51.41 108.984-91.811 108.984-91.811c3.903-27.037-4.675-35.645 24.173-58.684l27.528-144.738c-23.51-15.525-34.48-15.284-31.398-34.858m-185.487 239.7c24.102 48.564 58.927 49.83 112.92-11.999c1.283 5.716 2.688 11.705.11 26.085C226.064 405.839 122.614 501.45 91.125 512H0v-24.44c14.82-20.552 136.448-120.871 222.87-194.046m162.328 94.03c-4.945 42.036-43.27 78.82-94.482 124.456H128.412L265.24 396.745c23.62 53.755 65.574 45.968 119.959-9.201M193.26 292.13L0 456.854v-106.87L113.73 257.4c6.084 34.461 43.355 64.806 79.53 34.732"/></svg>
    </g>
    <g id="instagram">
        <path fill-rule="evenodd" clip-rule="evenodd" d="M12 18C15.3137 18 18 15.3137 18 12C18 8.68629 15.3137 6 12 6C8.68629 6 6 8.68629 6 12C6 15.3137 8.68629 18 12 18ZM12 16C14.2091 16 16 14.2091 16 12C16 9.79086 14.2091 8 12 8C9.79086 8 8 9.79086 8 12C8 14.2091 9.79086 16 12 16Z" fill="#FFB400"></path> <path d="M18 5C17.4477 5 17 5.44772 17 6C17 6.55228 17.4477 7 18 7C18.5523 7 19 6.55228 19 6C19 5.44772 18.5523 5 18 5Z" fill="#FFB400"></path> <path fill-rule="evenodd" clip-rule="evenodd" d="M1.65396 4.27606C1 5.55953 1 7.23969 1 10.6V13.4C1 16.7603 1 18.4405 1.65396 19.7239C2.2292 20.8529 3.14708 21.7708 4.27606 22.346C5.55953 23 7.23969 23 10.6 23H13.4C16.7603 23 18.4405 23 19.7239 22.346C20.8529 21.7708 21.7708 20.8529 22.346 19.7239C23 18.4405 23 16.7603 23 13.4V10.6C23 7.23969 23 5.55953 22.346 4.27606C21.7708 3.14708 20.8529 2.2292 19.7239 1.65396C18.4405 1 16.7603 1 13.4 1H10.6C7.23969 1 5.55953 1 4.27606 1.65396C3.14708 2.2292 2.2292 3.14708 1.65396 4.27606ZM13.4 3H10.6C8.88684 3 7.72225 3.00156 6.82208 3.0751C5.94524 3.14674 5.49684 3.27659 5.18404 3.43597C4.43139 3.81947 3.81947 4.43139 3.43597 5.18404C3.27659 5.49684 3.14674 5.94524 3.0751 6.82208C3.00156 7.72225 3 8.88684 3 10.6V13.4C3 15.1132 3.00156 16.2777 3.0751 17.1779C3.14674 18.0548 3.27659 18.5032 3.43597 18.816C3.81947 19.5686 4.43139 20.1805 5.18404 20.564C5.49684 20.7234 5.94524 20.8533 6.82208 20.9249C7.72225 20.9984 8.88684 21 10.6 21H13.4C15.1132 21 16.2777 20.9984 17.1779 20.9249C18.0548 20.8533 18.5032 20.7234 18.816 20.564C19.5686 20.1805 20.1805 19.5686 20.564 18.816C20.7234 18.5032 20.8533 18.0548 20.9249 17.1779C20.9984 16.2777 21 15.1132 21 13.4V10.6C21 8.88684 20.9984 7.72225 20.9249 6.82208C20.8533 5.94524 20.7234 5.49684 20.564 5.18404C20.1805 4.43139 19.5686 3.81947 18.816 3.43597C18.5032 3.27659 18.0548 3.14674 17.1779 3.0751C16.2777 3.00156 15.1132 3 13.4 3Z" fill="#FFB400"></path>
    </g>
    <g id="telegram">
        <path fill-rule="evenodd" clip-rule="evenodd" d="M23.1117 4.49449C23.4296 2.94472 21.9074 1.65683 20.4317 2.227L2.3425 9.21601C0.694517 9.85273 0.621087 12.1572 2.22518 12.8975L6.1645 14.7157L8.03849 21.2746C8.13583 21.6153 8.40618 21.8791 8.74917 21.968C9.09216 22.0568 9.45658 21.9576 9.70712 21.707L12.5938 18.8203L16.6375 21.8531C17.8113 22.7334 19.5019 22.0922 19.7967 20.6549L23.1117 4.49449ZM3.0633 11.0816L21.1525 4.0926L17.8375 20.2531L13.1 16.6999C12.7019 16.4013 12.1448 16.4409 11.7929 16.7928L10.5565 18.0292L10.928 15.9861L18.2071 8.70703C18.5614 8.35278 18.5988 7.79106 18.2947 7.39293C17.9906 6.99479 17.4389 6.88312 17.0039 7.13168L6.95124 12.876L3.0633 11.0816ZM8.17695 14.4791L8.78333 16.6015L9.01614 15.321C9.05253 15.1209 9.14908 14.9366 9.29291 14.7928L11.5128 12.573L8.17695 14.4791Z" fill="#FFB400"></path>
    </g>
    <g id="linkedin">
        <path d="M6.5 8C7.32843 8 8 7.32843 8 6.5C8 5.67157 7.32843 5 6.5 5C5.67157 5 5 5.67157 5 6.5C5 7.32843 5.67157 8 6.5 8Z" fill="#FFB400"></path> <path d="M5 10C5 9.44772 5.44772 9 6 9H7C7.55228 9 8 9.44771 8 10V18C8 18.5523 7.55228 19 7 19H6C5.44772 19 5 18.5523 5 18V10Z" fill="#FFB400"></path> <path d="M11 19H12C12.5523 19 13 18.5523 13 18V13.5C13 12 16 11 16 13V18.0004C16 18.5527 16.4477 19 17 19H18C18.5523 19 19 18.5523 19 18V12C19 10 17.5 9 15.5 9C13.5 9 13 10.5 13 10.5V10C13 9.44771 12.5523 9 12 9H11C10.4477 9 10 9.44772 10 10V18C10 18.5523 10.4477 19 11 19Z" fill="#FFB400"></path> <path fill-rule="evenodd" clip-rule="evenodd" d="M20 1C21.6569 1 23 2.34315 23 4V20C23 21.6569 21.6569 23 20 23H4C2.34315 23 1 21.6569 1 20V4C1 2.34315 2.34315 1 4 1H20ZM20 3C20.5523 3 21 3.44772 21 4V20C21 20.5523 20.5523 21 20 21H4C3.44772 21 3 20.5523 3 20V4C3 3.44772 3.44772 3 4 3H20Z" fill="#FFB400"></path>
    </g>
    <g id="post">
        <svg viewBox="0 0 15 15" version="1.1" id="post" xmlns="http://www.w3.org/2000/svg" fill="#FFB400"><g id="SVGRepo_bgCarrier" stroke-width="0"></g><g id="SVGRepo_tracerCarrier" stroke-linecap="round" stroke-linejoin="round"></g><g id="SVGRepo_iconCarrier"> <path d="M14,6.5V12c0,0.5523-0.4477,1-1,1H2c-0.5523,0-1-0.4477-1-1V6.5C1,6.2239,1.2239,6,1.5,6
	c0.0692-0.0152,0.1408-0.0152,0.21,0l0,0l5.79,4l5.8-4l0,0c0.066-0.0138,0.134-0.0138,0.2,0C13.7761,6,14,6.2239,14,6.5z M1.25,3.92
	L1.25,3.92L1.33,4L7.5,8l6.19-4l0,0h0.06l0,0c0.1796-0.0981,0.2792-0.2975,0.25-0.5C14,3.2239,13.7761,3,13.5,3h-12
	C1.2239,3,1,3.2239,1,3.5C1.0026,3.6745,1.0978,3.8345,1.25,3.92z"></path> </g></svg>
    </g>
</svg>